Coordinates
version=1
nRows=4
nColumns=63
inDegrees=yes

Units are S.I. units (second, meters, Newtons, ...)
If the header above contains a line with 'inDegrees', this indicates whether rotational values are in degrees (yes) or radians (no).

endheader
time	pelvis_tilt	pelvis_list	pelvis_rotation	pelvis_tx	pelvis_ty	pelvis_tz	hip_flexion_r	hip_adduction_r	hip_rotation_r	knee_angle_r	knee_angle_r_beta	ankle_angle_r	subtalar_angle_r	mtp_angle_r	hip_flexion_l	hip_adduction_l	hip_rotation_l	knee_angle_l	knee_angle_l_beta	ankle_angle_l	subtalar_angle_l	mtp_angle_l	L5_S1_Flex_Ext	L5_S1_Lat_Bending	L5_S1_axial_rotation	L4_L5_Flex_Ext	L4_L5_Lat_Bending	L4_L5_axial_rotation	L3_L4_Flex_Ext	L3_L4_Lat_Bending	L3_L4_axial_rotation	L2_L3_Flex_Ext	L2_L3_Lat_Bending	L2_L3_axial_rotation	L1_L2_Flex_Ext	L1_L2_Lat_Bending	L1_L2_axial_rotation	L1_T12_Flex_Ext	L1_T12_Lat_Bending	L1_T12_axial_rotation	Abs_r3	Abs_r2	Abs_r1	Abs_t1	Abs_t2	neck_flexion	neck_bending	neck_rotation	arm_flex_r	arm_add_r	arm_rot_r	elbow_flex_r	pro_sup_r	wrist_flex_r	wrist_dev_r	arm_flex_l	arm_add_l	arm_rot_l	elbow_flex_l	pro_sup_l	wrist_flex_l	wrist_dev_l
      0.96610169	      3.04303534	     -2.73503161	     89.08751967	      0.31507361	      1.00399490	      0.46421947	      4.51591842	     -3.65401811	      5.63946488	     10.60562715	      0.18510311	     27.37466447	     -0.66559636	      0.00000000	      2.55784978	      2.92396442	      6.22093324	      6.18913247	      0.10802074	     24.85059856	    -14.91450643	      0.00000000	     -0.12297059	      0.21623915	     -0.40743797	     -0.22836868	      0.28759807	     -0.43290285	     -0.20202838	      0.52576386	     -0.43290285	     -0.14054309	      0.52576386	     -0.35650823	     -0.11419049	      0.44095487	     -0.33104335	     -0.07026540	      0.33495444	     -0.30557848	     -0.87836663	      2.44614049	     -2.26604777	      0.00000000	      0.00000000	     25.47822478	      0.92476760	     -6.06607960	    -33.32001444	    -29.29586117	      8.05021413	    101.94016014	     87.30319354	      9.61400103	      5.57409029	     40.82648003	     -1.24697014	     95.06503446	     72.05403261	     88.90689775	     10.85385813	     14.29721289
      0.98305085	      3.04841460	     -2.79409624	     88.55878785	      0.31573786	      1.00358353	      0.46440643	      4.50965224	     -3.60182143	      6.30436237	     10.25027994	      0.17890113	     27.18191156	     -0.86201463	      0.00000000	      2.80676282	      2.90846475	      5.30057758	      6.72142720	      0.11731104	     25.10834016	    -14.66018931	      0.00000000	     -0.12931100	      0.23133107	     -0.29556526	     -0.24014346	      0.30767033	     -0.31403809	     -0.21244504	      0.56245837	     -0.31403809	     -0.14778954	      0.56245837	     -0.25861960	     -0.12007820	      0.47173032	     -0.24014677	     -0.07388831	      0.35833183	     -0.22167395	     -0.92365555	      2.61686335	     -1.64384531	      0.00000000	      0.00000000	     23.99782332	      0.24816043	     -7.54202954	    -34.11448796	    -29.04256567	      7.62842769	    102.35214507	     87.31298516	      7.80773577	      5.13225342	     40.71730236	     -1.43012511	     94.02493193	     72.10911778	     88.78061964	     11.79517428	     14.16541887
      1.00000000	      3.02551404	     -2.70522922	     87.87630055	      0.31660462	      1.00342652	      0.46469607	      4.47945884	     -3.55931223	      7.32221680	     10.12865912	      0.17677845	     26.93032400	     -1.25416299	      0.00000000	      2.83167859	      2.86987428	      3.96366941	      7.14569172	      0.12471585	     25.44082383	    -13.79465338	      0.00000000	     -0.15655427	      0.24301758	     -0.15956894	     -0.29073693	      0.32321338	     -0.16954199	     -0.25720300	      0.59087294	     -0.16954199	     -0.17892587	      0.59087294	     -0.13962282	     -0.14537629	      0.49556145	     -0.12964976	     -0.08945511	      0.37643423	     -0.11967670	     -1.11825147	      2.74906345	     -0.88747455	      0.00000000	      0.00000000	     22.44549669	      0.03825108	     -8.15920453	    -34.67239067	    -28.81702154	      7.42024393	    102.61378945	     87.45713180	      5.06930239	      3.55345438	     40.54513431	     -1.66130267	     93.80073245	     72.18907688	     88.62718471	      9.95013971	     13.95253364
      1.01694915	      2.96572599	     -2.63290492	     87.34646579	      0.31753453	      1.00327455	      0.46460053	      4.35491566	     -3.54631189	      8.21025225	      9.88242735	      0.17248090	     26.66580953	     -1.79838055	      0.00000000	      2.88498586	      2.84030239	      2.35340108	      7.62258904	      0.13303928	     25.80528164	    -12.59855178	      0.00000000	     -0.16804587	      0.24706198	     -0.06251300	     -0.31207799	      0.32859244	     -0.06642006	     -0.27608257	      0.60070651	     -0.06642006	     -0.19205963	      0.60070651	     -0.05469887	     -0.15604740	      0.50380880	     -0.05079181	     -0.09602141	      0.38269901	     -0.04688475	     -1.20033488	      2.79481457	     -0.34767853	      0.00000000	      0.00000000	     20.94737958	     -0.00389259	     -8.58668445	    -35.12854687	    -28.54862298	      7.28687868	    102.73293486	     87.57244454	      2.67051065	      1.82148869	     40.43810227	     -2.05528073	     94.94132690	     72.53374028	     88.45204014	      4.40511768	     13.34780956
